#N canvas 504 37 917 711 10;
#X obj 435 775 earplug~ 0 1;
#X obj 435 824 dac~;
#X msg 33 118 \; pd dsp \$1;
#X obj 34 77 tgl 15 0 empty empty empty 17 7 0 10 -262144 -1 -1 1 1
;
#X obj 437 455 *~;
#X obj 480 393 hsl 128 15 0 127 0 0 empty empty empty -2 -8 0 10 -262144
-1 -1 12700 1;
#X obj 477 418 / 127;
#X text 457 666 Azimuth: 0-360;
#X text 573 667 Elevation: -40-90;
#X obj 479 733 line;
#X msg 479 710 \$1 50;
#X obj 587 735 line;
#X msg 587 712 \$1 50;
#X text 490 470 Distance;
#X text 568 375 Volume;
#X obj 436 631 /~ 1;
#X obj 497 601 / 0.15;
#X obj 497 565 expr $f1 \; if($f1 <= 0.15 \, 0.15 \, $f1);
#X obj 497 515 * 0.1;
#X text 530 772 Binaural simulation <- Check the Help;
#X floatatom 497 539 5 0 0 0 - - -;
#X text 541 541 e.g. Minimum distance = 0.15;
#X text 547 607 As the distance increases \, the volume decreases;
#X symbolatom 458 113 10 0 0 0 - - -;
#X floatatom 581 105 5 0 0 0 - - -;
#X floatatom 631 107 5 0 0 0 - - -;
#X floatatom 683 108 5 0 0 0 - - -;
#X obj 192 407 readsf~;
#X text 244 278;
#X text 244 290;
#X obj 568 9 dumpOSC 9000;
#X floatatom 289 52 5 0 0 0 - - -;
#X obj 534 57 unpack s f f f f;
#X obj 194 107 select 0 1 2 3 4;
#X msg 192 189 open ./Assets/Sounds/sample1.wav \, 30;
#X msg 211 223 open ./Assets/Sounds/sample2.wav \, 30;
#X msg 233 253 open ./Assets/Sounds/sample3.wav \, 30;
#X msg 252 277 open ./Assets/Sounds/sample4.wav \, 30;
#X msg 274 305 open ./Assets/Sounds/sample5.wav \, 30;
#X connect 0 0 1 0;
#X connect 0 1 1 1;
#X connect 3 0 2 0;
#X connect 4 0 15 0;
#X connect 5 0 6 0;
#X connect 6 0 4 1;
#X connect 9 0 0 1;
#X connect 10 0 9 0;
#X connect 11 0 0 2;
#X connect 12 0 11 0;
#X connect 15 0 0 0;
#X connect 16 0 15 1;
#X connect 17 1 16 0;
#X connect 18 0 20 0;
#X connect 20 0 17 0;
#X connect 24 0 18 0;
#X connect 25 0 10 0;
#X connect 26 0 12 0;
#X connect 27 0 4 0;
#X connect 30 0 32 0;
#X connect 31 0 33 0;
#X connect 32 0 23 0;
#X connect 32 1 24 0;
#X connect 32 2 25 0;
#X connect 32 3 26 0;
#X connect 32 4 31 0;
#X connect 33 0 34 0;
#X connect 33 1 35 0;
#X connect 33 2 36 0;
#X connect 33 3 37 0;
#X connect 33 4 38 0;
#X connect 33 5 34 0;
#X connect 34 0 27 0;
#X connect 35 0 27 0;
#X connect 36 0 27 0;
#X connect 37 0 27 0;
#X connect 38 0 27 0;
